<svg width="22" height="22" viewBox="0 0 22 22" fill="none" xmlns="http://www.w3.org/2000/svg">
<path d="M17.8182 1C16.0625 1 14.6364 2.21845 14.6364 3.71845C14.6364 4.87621 15.4858 5.8665 16.6818 6.25728V6.92718L11 13.1699L5.31818 6.92718V6.25728C6.5142 5.8665 7.36364 4.87621 7.36364 3.71845C7.36364 2.21845 5.9375 1 4.18182 1C2.42614 1 1 2.21845 1 3.71845C1 4.9466 1.96023 5.98786 3.27273 6.32281V7.15777C3.27273 7.3932 3.36648 7.62621 3.53693 7.81311L9.97727 14.8908V15.7063C8.72159 16.0704 7.81818 17.0874 7.81818 18.2816C7.81818 19.7816 9.24432 21 11 21C12.7557 21 14.1818 19.7816 14.1818 18.2816C14.1818 17.0874 13.2784 16.0728 12.0227 15.7063V14.8908L18.4631 7.81311C18.6335 7.62621 18.7273 7.3932 18.7273 7.15777V6.32281C20.0398 5.98786 21 4.9466 21 3.71845C21 2.21845 19.5739 1 17.8182 1ZM2.81818 3.71845C2.82547 3.41357 2.97234 3.12329 3.22727 2.90988C3.48221 2.69647 3.8249 2.57694 4.18182 2.57694C4.53873 2.57694 4.88142 2.69647 5.13636 2.90988C5.3913 3.12329 5.53817 3.41357 5.54545 3.71845C5.53817 4.02332 5.3913 4.3136 5.13636 4.52702C4.88142 4.74043 4.53873 4.85996 4.18182 4.85996C3.8249 4.85996 3.48221 4.74043 3.22727 4.52702C2.97234 4.3136 2.82547 4.02332 2.81818 3.71845ZM12.3636 18.2816C12.3564 18.5864 12.2095 18.8767 11.9545 19.0901C11.6996 19.3035 11.3569 19.4231 11 19.4231C10.6431 19.4231 10.3004 19.3035 10.0455 19.0901C9.79052 18.8767 9.64365 18.5864 9.63636 18.2816C9.64365 17.9767 9.79052 17.6864 10.0455 17.473C10.3004 17.2596 10.6431 17.14 11 17.14C11.3569 17.14 11.6996 17.2596 11.9545 17.473C12.2095 17.6864 12.3564 17.9767 12.3636 18.2816ZM17.8182 4.8835C17.4613 4.87727 17.1216 4.75179 16.8718 4.53398C16.622 4.31617 16.4821 4.02338 16.4821 3.71845C16.4821 3.41351 16.622 3.12072 16.8718 2.90291C17.1216 2.6851 17.4613 2.55962 17.8182 2.5534C18.175 2.55962 18.5148 2.6851 18.7646 2.90291C19.0144 3.12072 19.1543 3.41351 19.1543 3.71845C19.1543 4.02338 19.0144 4.31617 18.7646 4.53398C18.5148 4.75179 18.175 4.87727 17.8182 4.8835Z" fill="#C1C7D0"/>
</svg>
