<svg width="32" height="32" viewBox="0 0 32 32" fill="none" xmlns="http://www.w3.org/2000/svg">
<g clip-path="url(#clip0_173_689)">
<path d="M30.8571 3.42847H1.14286C0.510714 3.42847 0 3.93918 0 4.57132V27.4285C0 28.0606 0.510714 28.5713 1.14286 28.5713H30.8571C31.4893 28.5713 32 28.0606 32 27.4285V4.57132C32 3.93918 31.4893 3.42847 30.8571 3.42847ZM29.4286 25.9999H2.57143V5.9999H29.4286V25.9999ZM19.5107 14.7142H23.9179C23.9643 14.7142 24 14.5856 24 14.4285V12.7142C24 12.557 23.9643 12.4285 23.9179 12.4285H19.5107C19.4643 12.4285 19.4286 12.557 19.4286 12.7142V14.4285C19.4286 14.5856 19.4643 14.7142 19.5107 14.7142ZM19.6821 19.857H26.3143C26.4536 19.857 26.5679 19.7285 26.5679 19.5713V17.857C26.5679 17.6999 26.4536 17.5713 26.3143 17.5713H19.6821C19.5429 17.5713 19.4286 17.6999 19.4286 17.857V19.5713C19.4286 19.7285 19.5429 19.857 19.6821 19.857ZM5.71429 21.7499H7.28214C7.43214 21.7499 7.55357 21.632 7.56429 21.482C7.7 19.6785 9.20714 18.2499 11.0357 18.2499C12.8643 18.2499 14.3714 19.6785 14.5071 21.482C14.5179 21.632 14.6393 21.7499 14.7893 21.7499H16.3571C16.3959 21.7499 16.4343 21.7421 16.4699 21.7269C16.5055 21.7116 16.5377 21.6893 16.5644 21.6612C16.5911 21.6332 16.6119 21.6 16.6254 21.5636C16.6388 21.5273 16.6448 21.4886 16.6429 21.4499C16.5429 19.5463 15.5 17.8892 13.9786 16.9463C14.6495 16.2088 15.0202 15.2469 15.0179 14.2499C15.0179 12.0392 13.2357 10.2499 11.0393 10.2499C8.84286 10.2499 7.06072 12.0392 7.06072 14.2499C7.06072 15.2892 7.45357 16.232 8.1 16.9463C7.32546 17.4263 6.67859 18.0866 6.21464 18.8708C5.75069 19.6551 5.48344 20.5399 5.43571 21.4499C5.42143 21.6142 5.55 21.7499 5.71429 21.7499ZM11.0357 12.3928C12.0536 12.3928 12.8821 13.2249 12.8821 14.2499C12.8821 15.2749 12.0536 16.107 11.0357 16.107C10.0179 16.107 9.18929 15.2749 9.18929 14.2499C9.18929 13.2249 10.0179 12.3928 11.0357 12.3928Z" fill="#B3BAC5"/>
</g>
<defs>
<clipPath id="clip0_173_689">
<rect width="32" height="32" fill="white"/>
</clipPath>
</defs>
</svg>
