<svg width="32" height="32" viewBox="0 0 32 32" fill="none" xmlns="http://www.w3.org/2000/svg">
<path d="M30.0001 3.42847H16.0001C15.8429 3.42847 15.7144 3.55704 15.7144 3.71418V5.9999C15.7144 6.15704 15.8429 6.28561 16.0001 6.28561H30.0001C30.1572 6.28561 30.2858 6.15704 30.2858 5.9999V3.71418C30.2858 3.55704 30.1572 3.42847 30.0001 3.42847ZM30.0001 25.7142H2.00007C1.84293 25.7142 1.71436 25.8428 1.71436 25.9999V28.2856C1.71436 28.4428 1.84293 28.5713 2.00007 28.5713H30.0001C30.1572 28.5713 30.2858 28.4428 30.2858 28.2856V25.9999C30.2858 25.8428 30.1572 25.7142 30.0001 25.7142ZM30.0001 14.5713H8.00007C7.84293 14.5713 7.71436 14.6999 7.71436 14.857V17.1428C7.71436 17.2999 7.84293 17.4285 8.00007 17.4285H30.0001C30.1572 17.4285 30.2858 17.2999 30.2858 17.1428V14.857C30.2858 14.6999 30.1572 14.5713 30.0001 14.5713Z" fill="#172B4D"/>
</svg>
