<svg width="30" height="30" viewBox="0 0 30 30" fill="none" xmlns="http://www.w3.org/2000/svg">
<path d="M5.91793 23.5715C5.98936 23.5715 6.06078 23.5644 6.13221 23.5536L12.1394 22.5001C12.2108 22.4858 12.2786 22.4536 12.3286 22.4001L27.4679 7.26078C27.501 7.22774 27.5273 7.1885 27.5452 7.14529C27.5631 7.10209 27.5724 7.05577 27.5724 7.009C27.5724 6.96222 27.5631 6.91591 27.5452 6.8727C27.5273 6.8295 27.501 6.79025 27.4679 6.75721L21.5322 0.817927C21.4644 0.75007 21.3751 0.714355 21.2786 0.714355C21.1822 0.714355 21.0929 0.75007 21.0251 0.817927L5.88578 15.9572C5.83221 16.0108 5.80007 16.0751 5.78578 16.1465L4.73221 22.1536C4.69747 22.345 4.70988 22.5419 4.76838 22.7273C4.82688 22.9128 4.92969 23.0812 5.06793 23.2179C5.30364 23.4465 5.60007 23.5715 5.91793 23.5715ZM8.32507 17.3429L21.2786 4.39293L23.8965 7.01078L10.9429 19.9608L7.76793 20.5215L8.32507 17.3429ZM28.1429 26.5715H1.85721C1.22507 26.5715 0.714355 27.0822 0.714355 27.7144V29.0001C0.714355 29.1572 0.842927 29.2858 1.00007 29.2858H29.0001C29.1572 29.2858 29.2858 29.1572 29.2858 29.0001V27.7144C29.2858 27.0822 28.7751 26.5715 28.1429 26.5715Z" fill="#B3BAC5"/>
</svg>
