<svg width="22" height="22" viewBox="0 0 22 22" fill="none" xmlns="http://www.w3.org/2000/svg">
<path d="M20.9399 19.5624L14.4474 13.0699C15.4549 11.7675 15.9999 10.175 15.9999 8.49997C15.9999 6.49498 15.2174 4.61498 13.8024 3.19749C12.3874 1.78 10.5025 1 8.49997 1C6.49748 1 4.61248 1.7825 3.19749 3.19749C1.78 4.61248 1 6.49498 1 8.49997C1 10.5025 1.7825 12.3874 3.19749 13.8024C4.61248 15.2199 6.49498 15.9999 8.49997 15.9999C10.175 15.9999 11.765 15.4549 13.0674 14.4499L19.5599 20.9399C19.579 20.959 19.6016 20.9741 19.6264 20.9844C19.6513 20.9947 19.678 21 19.7049 21C19.7318 21 19.7585 20.9947 19.7834 20.9844C19.8083 20.9741 19.8309 20.959 19.8499 20.9399L20.9399 19.8524C20.959 19.8334 20.9741 19.8108 20.9844 19.7859C20.9947 19.761 21 19.7343 21 19.7074C21 19.6805 20.9947 19.6538 20.9844 19.6289C20.9741 19.6041 20.959 19.5815 20.9399 19.5624ZM12.46 12.46C11.4 13.5174 9.99496 14.0999 8.49997 14.0999C7.00497 14.0999 5.59998 13.5174 4.53998 12.46C3.48249 11.4 2.89999 9.99496 2.89999 8.49997C2.89999 7.00497 3.48249 5.59748 4.53998 4.53998C5.59998 3.48249 7.00497 2.89999 8.49997 2.89999C9.99496 2.89999 11.4025 3.47999 12.46 4.53998C13.5174 5.59998 14.0999 7.00497 14.0999 8.49997C14.0999 9.99496 13.5174 11.4025 12.46 12.46Z" fill="#C1C7D0"/>
</svg>
