<svg width="32" height="32" viewBox="0 0 32 32" fill="none" xmlns="http://www.w3.org/2000/svg">
<path d="M30.743 20.0607L28.4037 18.0607C28.5144 17.3821 28.5715 16.6893 28.5715 15.9964C28.5715 15.3036 28.5144 14.6107 28.4037 13.9321L30.743 11.9321C30.9194 11.7811 31.0457 11.5799 31.105 11.3553C31.1644 11.1308 31.1539 10.8935 31.0751 10.675L31.043 10.5821C30.399 8.78222 29.4346 7.11368 28.1965 5.65713L28.1322 5.58213C27.9821 5.40553 27.7819 5.27858 27.5581 5.21801C27.3343 5.15745 27.0974 5.1661 26.8787 5.24284L23.9751 6.27499C22.9037 5.39641 21.7072 4.70356 20.4144 4.21784L19.8537 1.18213C19.8114 0.953708 19.7006 0.743566 19.536 0.579621C19.3714 0.415676 19.1608 0.305689 18.9322 0.264272L18.8358 0.246415C16.9751 -0.0892996 15.018 -0.0892996 13.1572 0.246415L13.0608 0.264272C12.8322 0.305689 12.6217 0.415676 12.4571 0.579621C12.2925 0.743566 12.1817 0.953708 12.1394 1.18213L11.5751 4.23213C10.2926 4.71794 9.0982 5.41043 8.03939 6.28213L5.11439 5.24284C4.8957 5.16549 4.65864 5.15652 4.43473 5.21713C4.21082 5.27773 4.01065 5.40504 3.86082 5.58213L3.79653 5.65713C2.55991 7.11472 1.59573 8.78298 0.950105 10.5821L0.917962 10.675C0.757248 11.1214 0.889391 11.6214 1.2501 11.9321L3.61796 13.9536C3.50725 14.625 3.45368 15.3107 3.45368 15.9928C3.45368 16.6786 3.50725 17.3643 3.61796 18.0321L1.2501 20.0536C1.07366 20.2046 0.947378 20.4058 0.888048 20.6304C0.828717 20.8549 0.839151 21.0922 0.917962 21.3107L0.950105 21.4036C1.59653 23.2036 2.55368 24.8643 3.79653 26.3286L3.86082 26.4036C4.01101 26.5802 4.21119 26.7071 4.43497 26.7677C4.65875 26.8282 4.89563 26.8196 5.11439 26.7428L8.03939 25.7036C9.10368 26.5786 10.293 27.2714 11.5751 27.7536L12.1394 30.8036C12.1817 31.032 12.2925 31.2421 12.4571 31.4061C12.6217 31.57 12.8322 31.68 13.0608 31.7214L13.1572 31.7393C15.0351 32.0768 16.958 32.0768 18.8358 31.7393L18.9322 31.7214C19.1608 31.68 19.3714 31.57 19.536 31.4061C19.7006 31.2421 19.8114 31.032 19.8537 30.8036L20.4144 27.7678C21.7067 27.2834 22.9099 26.5883 23.9751 25.7107L26.8787 26.7428C27.0974 26.8202 27.3344 26.8292 27.5583 26.7686C27.7823 26.708 27.9824 26.5807 28.1322 26.4036L28.1965 26.3286C29.4394 24.8607 30.3965 23.2036 31.043 21.4036L31.0751 21.3107C31.2358 20.8714 31.1037 20.3714 30.743 20.0607ZM25.868 14.3536C25.9572 14.8928 26.0037 15.4464 26.0037 16C26.0037 16.5536 25.9572 17.1071 25.868 17.6464L25.6322 19.0786L28.3001 21.3607C27.8957 22.2924 27.3852 23.1745 26.7787 23.9893L23.4644 22.8143L22.343 23.7357C21.4894 24.4357 20.5394 24.9857 19.5108 25.3714L18.1501 25.8821L17.5108 29.3464C16.5021 29.4607 15.4838 29.4607 14.4751 29.3464L13.8358 25.875L12.4858 25.3571C11.468 24.9714 10.5215 24.4214 9.67511 23.725L8.55368 22.8L5.21796 23.9857C4.61082 23.1678 4.10368 22.2857 3.69653 21.3571L6.39296 19.0536L6.16082 17.625C6.07511 17.0928 6.02868 16.5428 6.02868 16C6.02868 15.4536 6.07153 14.9071 6.16082 14.375L6.39296 12.9464L3.69653 10.6428C4.10011 9.7107 4.61082 8.83213 5.21796 8.01427L8.55368 9.19999L9.67511 8.27499C10.5215 7.57856 11.468 7.02856 12.4858 6.64284L13.8394 6.13213L14.4787 2.6607C15.4822 2.54641 16.5072 2.54641 17.5144 2.6607L18.1537 6.12499L19.5144 6.6357C20.5394 7.02142 21.493 7.57141 22.3465 8.27141L23.468 9.19284L26.7822 8.01784C27.3894 8.8357 27.8965 9.71784 28.3037 10.6464L25.6358 12.9286L25.868 14.3536Z" fill="#6B778C"/>
</svg>
